HIERARCHY
ROOT hip
{
  OFFSET 0 0 0
  CHANNELS 6 Xposition Yposition Zposition Zrotation Yrotation Xrotation
  JOINT abdomen
  {
    OFFSET 0 20.6881 -0.73152
    CHANNELS 3 Zrotation Xrotation Yrotation
    JOINT chest
    {
      OFFSET 0 11.7043 -0.48768
      CHANNELS 3 Zrotation Xrotation Yrotation
      JOINT neck
      {
        OFFSET 0 22.1894 -2.19456
        CHANNELS 3 Zrotation Xrotation Yrotation
        JOINT head
        {
          OFFSET -0.24384 7.07133 1.2192
          CHANNELS 3 Zrotation Xrotation Yrotation
          JOINT leftEye
          {
            OFFSET 4.14528 8.04674 8.04672
            CHANNELS 3 Zrotation Xrotation Yrotation
            End Site
            {
              OFFSET 1 0 0
            }
          }
          JOINT rightEye
          {
            OFFSET -3.6576 8.04674 8.04672
            CHANNELS 3 Zrotation Xrotation Yrotation
            End Site
            {
              OFFSET 1 0 0
            }
          }
        }
      }
      JOINT rCollar
      {
        OFFSET -2.68224 19.2634 -4.8768
        CHANNELS 3 Zrotation Xrotation Yrotation
        JOINT rShldr
        {
          OFFSET -8.77824 -1.95073 1.46304
          CHANNELS 3 Zrotation Xrotation Yrotation
          JOINT rForeArm
          {
            OFFSET -28.1742 -1.7115 0.48768
            CHANNELS 3 Zrotation Xrotation Yrotation
            JOINT rHand
            {
              OFFSET -22.5879 0.773209 7.07136
              CHANNELS 3 Zrotation Xrotation Yrotation
              JOINT rThumb1
              {
                OFFSET -1.2192 -0.487915 3.41376
                CHANNELS 3 Zrotation Xrotation Yrotation
                JOINT rThumb2
                {
                  OFFSET -3.37035 -0.52449 3.41376
                  CHANNELS 3 Zrotation Xrotation Yrotation
                  End Site
                  {
                    OFFSET -1.78271 -1.18214 1.43049
                  }
                }
              }
              JOINT rIndex1
              {
                OFFSET -7.75947 0.938293 5.60832
                CHANNELS 3 Zrotation Xrotation Yrotation
                JOINT rIndex2
                {
                  OFFSET -2.54057 -0.884171 1.56538
                  CHANNELS 3 Zrotation Xrotation Yrotation
                  End Site
                  {
                    OFFSET -1.62519 -0.234802 1.16502
                  }
                }
              }
              JOINT rMid1
              {
                OFFSET -8.24714 1.18213 3.41376
                CHANNELS 3 Zrotation Xrotation Yrotation
                JOINT rMid2
                {
                  OFFSET -3.10165 -0.590103 1.0647
                  CHANNELS 3 Zrotation Xrotation Yrotation
                  End Site
                  {
                    OFFSET -2.48547 -0.328903 0.83742
                  }
                }
              }
              JOINT rRing1
              {
                OFFSET -8.82822 0.546677 1.51678
                CHANNELS 3 Zrotation Xrotation Yrotation
                JOINT rRing2
                {
                  OFFSET -2.60934 -0.819778 -0.0198488
                  CHANNELS 3 Zrotation Xrotation Yrotation
                  End Site
                  {
                    OFFSET -2.33842 -0.294052 0.168128
                  }
                }
              }
              JOINT rPinky1
              {
                OFFSET -8.27202 -0.0477905 -0.4584
                CHANNELS 3 Zrotation Xrotation Yrotation
                JOINT rPinky2
                {
                  OFFSET -1.82734 -0.647385 -0.700984
                  CHANNELS 3 Zrotation Xrotation Yrotation
                  End Site
                  {
                    OFFSET -1.69225 -0.51767 -0.607171
                  }
                }
              }
            }
          }
        }
      }
      JOINT lCollar
      {
        OFFSET 2.68224 19.2634 -4.8768
        CHANNELS 3 Zrotation Xrotation Yrotation
        JOINT lShldr
        {
          OFFSET 8.77824 -1.95073 1.46304
          CHANNELS 3 Zrotation Xrotation Yrotation
          JOINT lForeArm
          {
            OFFSET 28.1742 -1.7115 0.48768
            CHANNELS 3 Zrotation Xrotation Yrotation
            JOINT lHand
            {
              OFFSET 22.5879 0.773209 7.07136
              CHANNELS 3 Zrotation Xrotation Yrotation
              JOINT lThumb1
              {
                OFFSET 1.2192 -0.487915 3.41376
                CHANNELS 3 Zrotation Xrotation Yrotation
                JOINT lThumb2
                {
                  OFFSET 3.37035 -0.52449 3.41376
                  CHANNELS 3 Zrotation Xrotation Yrotation
                  End Site
                  {
                    OFFSET 1.78271 -1.18214 1.43049
                  }
                }
              }
              JOINT lIndex1
              {
                OFFSET 7.75947 0.938293 5.60832
                CHANNELS 3 Zrotation Xrotation Yrotation
                JOINT lIndex2
                {
                  OFFSET 2.54057 -0.884171 1.56538
                  CHANNELS 3 Zrotation Xrotation Yrotation
                  End Site
                  {
                    OFFSET 1.62519 -0.234802 1.16502
                  }
                }
              }
              JOINT lMid1
              {
                OFFSET 8.24714 1.18213 3.41376
                CHANNELS 3 Zrotation Xrotation Yrotation
                JOINT lMid2
                {
                  OFFSET 3.10165 -0.590103 1.0647
                  CHANNELS 3 Zrotation Xrotation Yrotation
                  End Site
                  {
                    OFFSET 2.48547 -0.328903 0.83742
                  }
                }
              }
              JOINT lRing1
              {
                OFFSET 8.82822 0.546677 1.51678
                CHANNELS 3 Zrotation Xrotation Yrotation
                JOINT lRing2
                {
                  OFFSET 2.60934 -0.819778 -0.0198488
                  CHANNELS 3 Zrotation Xrotation Yrotation
                  End Site
                  {
                    OFFSET 2.33842 -0.294052 0.168128
                  }
                }
              }
              JOINT lPinky1
              {
                OFFSET 8.27202 -0.0477905 -0.4584
                CHANNELS 3 Zrotation Xrotation Yrotation
                JOINT lPinky2
                {
                  OFFSET 1.82734 -0.647385 -0.700984
                  CHANNELS 3 Zrotation Xrotation Yrotation
                  End Site
                  {
                    OFFSET 1.69225 -0.51767 -0.607171
                  }
                }
              }
            }
          }
        }
      }
    }
  }
  JOINT rButtock
  {
    OFFSET -8.77824 4.35084 1.2192
    CHANNELS 3 Zrotation Xrotation Yrotation
    JOINT rThigh
    {
      OFFSET 0 -1.70687 -2.19456
      CHANNELS 3 Zrotation Xrotation Yrotation
      JOINT rShin
      {
        OFFSET 0 -36.8199 0.73152
        CHANNELS 3 Zrotation Xrotation Yrotation
        JOINT rFoot
        {
          OFFSET 0.73152 -45.1104 -5.12064
          CHANNELS 3 Zrotation Xrotation Yrotation
          End Site
          {
            OFFSET -1.1221 -3.69964 12.103
          }
        }
      }
    }
  }
  JOINT lButtock
  {
    OFFSET 8.77824 4.35084 1.2192
    CHANNELS 3 Zrotation Xrotation Yrotation
    JOINT lThigh
    {
      OFFSET 0 -1.70687 -2.19456
      CHANNELS 3 Zrotation Xrotation Yrotation
      JOINT lShin
      {
        OFFSET 0 -36.8199 0.73152
        CHANNELS 3 Zrotation Xrotation Yrotation
        JOINT lFoot
        {
          OFFSET -0.73152 -45.1104 -5.12064
          CHANNELS 3 Zrotation Xrotation Yrotation
          End Site
          {
            OFFSET 1.1221 -3.69964 12.103
          }
        }
      }
    }
  }
}
MOTION
Frames:	4
Frame Time:	0.03333
-6.1682 60.975199999999994 -6.2838 -169.612782 30.065278 -172.788591 5.283572 9.243504 46.690484 -2.243996 -5.09236 -38.385859 0.165686 12.985205 6.857441 0.220365 -25.733698 4.028038 0.000421 -0.0 -0.000873 0.000421 -0.0 -0.000873 -78.72798 68.390758 81.807726 -100.606885 16.580218 121.768063 80.584686 -34.370047 -97.369422 -173.10958 36.339453 144.407912 6.464618 -6.452278 -0.635922 -87.625915 25.229922 78.58134 -153.452195 -21.067894 121.744874 -163.428149 -20.861491 119.519197 89.034836 -81.394027 59.76157 -20.129014 44.15281 16.181026 0.00078 0.022806 0.0059 -23.397982 72.953435 36.424828 -1.149238 -2.913938 -1.068599 42.372075 82.943049 -5.119004 -1.990061 -14.052965 2.880685 104.380236 -13.819769 -173.978248 -89.677512 -28.152672 108.728799 108.260492 65.529088 -85.607843 68.482819 37.953582 -35.659444 -4.665806 -13.502942 -22.358731 -5.921565 -10.174664 2.967243 -9.337173 4.949682 -0.072868 82.841595 61.110308 -74.531854 -0.229389 9.015961 -1.613184 70.379253 -72.131227 87.279312 -14.023479 27.429003 0.842168 81.324349 -51.184609 79.74071 136.71858 -13.186485 134.749279 7.3e-05 -0.000784 0.00011 -5.178567 -4.603633 -0.519602 0.340146 49.960283 -32.751162 -72.718606 -14.041299 -3.832834 -2.6e-05 -0.000784 3.3e-05 52.064086 -54.414221 -122.37115 -12.70739 -58.164481 134.939042 52.75702 25.144749 -4.344548
-6.162999999999999 60.6776 -6.698600000000001 -169.308453 29.421635 -172.640023 6.073687 5.208585 153.771155 -2.143112 0.661603 -144.976177 11.872578 22.962904 99.835544 -33.906428 13.844316 -86.290491 0.003895 -0.0 -0.00314 0.004598 0.0 0.002424 -158.46737 -30.0552 166.921326 -50.808705 44.20076 9.746144 -136.510245 64.732119 -115.04469 -3.314428 15.892027 0.709915 81.971437 -50.091382 32.723321 -32.237099 6.860825 -7.458832 -140.762844 1.38034 116.228869 6.735946 5.13928 -8.572531 -0.056206 0.168127 0.031946 -129.274473 52.116857 118.505166 -74.84116 72.959701 92.828473 5.013742 29.771292 -0.48958 -156.380458 53.734291 -150.118595 1.463926 -0.371539 -1.822298 -4.224069 -44.025588 8.500258 -58.563457 -11.004002 22.026545 5.416088 41.384523 -106.631105 7.096764 -4.381115 2.991975 176.533155 -14.149667 -89.697033 159.33757 1.28031 -85.631241 162.638756 -37.465389 -122.647704 -10.140683 6.390387 8.649195 39.288646 53.366286 -32.877615 86.720198 64.090615 -78.706622 0.001128 0.03634 -0.011437 -7.056569 28.886777 -4.503162 -25.925659 79.093407 -10.823448 161.814012 55.539159 148.498209 -0.031196 0.000174 -0.023397 -4.080039 -4.072697 -45.124205 -37.047607 44.359338 151.927467 -76.78174 -22.197165 -146.63002 -0.0 -0.000647 -0.00179 50.142126 -54.958208 129.090645 64.529511 12.05754 173.132665 104.727843 -49.745307 -154.714182
-6.1533999999999995 60.378 -7.073300000000001 -169.059225 28.703834 -172.601957 7.35844 9.535563 -0.921586 0.72542 -6.262368 10.10047 10.471845 27.966606 130.63806 -28.40612 30.571557 -114.273693 0.003053 0.0 0.000429 0.003067 -0.0 -0.000707 -9.651343 34.836236 11.19908 62.91519 1.551906 13.315559 8.580911 -6.923866 103.785147 -11.293839 37.915541 3.020372 6.275102 -6.263364 -0.625816 -131.891959 -26.801377 118.087384 -151.352869 -17.158864 121.132259 -8.052466 31.861356 0.165173 -10.914927 25.68118 7.591826 -170.997444 -28.572937 144.212417 -145.111151 -0.667869 -178.916943 11.981676 29.599128 -5.643189 15.506983 54.138183 12.1376 19.357569 58.455199 8.705069 155.460241 -3.227733 -161.777679 46.558005 16.546464 9.014396 88.654693 27.687356 128.848043 -30.110492 -69.97893 -15.551412 1.194127 1.17405 -0.19532 -10.997287 -15.194029 7.644602 13.872917 18.814426 -9.291046 168.180263 -19.848931 -109.935441 160.673915 -6.66783 -143.24477 83.278479 63.964449 -75.245253 0.016768 -1.32317 0.415711 76.88693 78.805365 -90.406014 148.274446 22.510976 144.497941 -10.044208 22.78933 -3.460112 -0.000283 -0.001149 0.000364 -3.585174 -3.99153 -83.500254 -60.847035 8.688363 -70.544413 42.249123 -8.076698 124.636598 -0.001101 0.001416 0.001416 51.394824 -53.922854 45.939064 -16.304116 62.878241 -75.88579 142.387682 -21.645875 -111.90052
-6.1535 60.15239999999999 -7.456300000000001 -168.468655 27.930981 -172.339191 8.176507 9.178532 -0.0 0.441786 -6.335025 9.347387 8.844734 16.058828 58.152463 -27.0505 -9.858796 -51.717759 0.000971 -0.0 -0.003474 -0.00471 0.0 -0.002751 3.19184 -25.838982 -5.073319 70.237861 36.444963 -39.114516 -11.36957 -13.187609 99.929016 -3.436058 16.627034 0.773371 -164.699492 -2.37145 89.585484 -155.996211 -1.074683 79.149146 -169.124432 -47.194566 121.482632 -0.55494 25.580674 -2.418136 -82.840569 61.110756 74.53231 -171.995387 -31.384636 143.888559 -75.674534 -72.115033 -92.829275 14.037434 28.308023 -0.857319 -41.392564 -46.840016 -40.213782 48.521989 83.088173 -10.313852 -0.163203 -0.98996 0.219263 -64.150416 18.626632 -19.357192 171.322784 13.012878 -43.281005 178.664619 -9.624434 -143.337314 4.166832 4.057218 -0.784423 -6.35444 -7.008368 2.166119 46.207645 39.65321 -36.318414 -94.960517 -63.554453 -46.123993 125.643926 49.839964 -115.27415 -179.731097 -49.541103 -140.818238 -0.001078 0.022529 -0.007845 154.524038 9.889399 -170.523365 -9.90917 32.2382 -8.581442 23.394676 -40.010599 23.607219 179.992163 75.750492 0.005362 165.305722 72.852792 13.982251 -0.1702 56.208068 -107.244609 -45.385653 -83.47995 35.377958 -0.0 6.7e-05 0.001956 55.106244 -54.121013 -23.562077 -59.844852 18.328143 115.249988 -44.459943 17.806318 -11.322084
